<svg width="0" height="0" class="hidden">
  <symbol xmlns="http://www.w3.org/2000/svg" viewBox="0 0 512 512" id="substract">
    <path d="M474.5 18.5h-437C16.822 18.5 0 35.322 0 56v330c0 20.678 16.822 37.5 37.5 37.5h160.057l-9.027 31.594c-3.625 12.688-17.835 23.406-31.03 23.406H101c-4.142 0-7.5 3.357-7.5 7.5s3.358 7.5 7.5 7.5h310c4.142 0 7.5-3.357 7.5-7.5s-3.358-7.5-7.5-7.5h-56.5c-13.195 0-27.405-10.719-31.03-23.406l-9.027-31.594H474.5c20.678 0 37.5-16.822 37.5-37.5V56c0-20.678-16.822-37.5-37.5-37.5zm-437 15h437c12.407 0 22.5 10.094 22.5 22.5v262.5H15V56c0-12.406 10.093-22.5 22.5-22.5zm271.547 425.715c2.058 7.205 6.149 13.824 11.512 19.285H191.441c5.363-5.461 9.454-12.081 11.512-19.285l10.204-35.715h85.685zM474.5 408.5h-437C25.093 408.5 15 398.406 15 386v-52.5h482V386c0 12.406-10.093 22.5-22.5 22.5z"></path>
    <path d="M37.5 303.5h437a7.5 7.5 0 007.5-7.5V56a7.5 7.5 0 00-7.5-7.5h-437A7.5 7.5 0 0030 56v105c0 4.143 3.358 7.5 7.5 7.5s7.5-3.357 7.5-7.5V63.5h422v225H45V191c0-4.143-3.358-7.5-7.5-7.5S30 186.857 30 191v105a7.5 7.5 0 007.5 7.5zm218.5 45c-12.407 0-22.5 10.094-22.5 22.5s10.093 22.5 22.5 22.5 22.5-10.094 22.5-22.5-10.093-22.5-22.5-22.5zm0 30c-4.136 0-7.5-3.364-7.5-7.5s3.364-7.5 7.5-7.5 7.5 3.364 7.5 7.5-3.364 7.5-7.5 7.5z"></path>
  </symbol>
  <symbol xmlns="http://www.w3.org/2000/svg" viewBox="0 0 443.294 443.294" id="desktop">
    <path d="M221.647 0C99.433 0 0 99.433 0 221.647s99.433 221.647 221.647 221.647 221.647-99.433 221.647-221.647S343.861 0 221.647 0zm0 415.588c-106.941 0-193.941-87-193.941-193.941s87-193.941 193.941-193.941 193.941 87 193.941 193.941-87 193.941-193.941 193.941z"></path>
    <path d="M235.5 83.118h-27.706v144.265l87.176 87.176 19.589-19.589-79.059-79.059z"></path>
  </symbol>
  <symbol xmlns="http://www.w3.org/2000/svg" viewBox="-81 0 512 512.129" id="clock">
    <path d="M191.824 29.45a41.125 41.125 0 00-25.191 3.515 26.308 26.308 0 00-31.836 3.07L106.832 62.22v-2.282c0-23.562-19.102-42.664-42.668-42.664-14.137 0-25.598 11.461-25.598 25.598v83.578l-20.89 22.656a33.926 33.926 0 00-9.028 23.586 561.165 561.165 0 006.57 88.864c.184.672.454 1.316.802 1.922L2.094 302.652c-5.297 14.582.035 30.899 12.918 39.543l4.875 3.313c-4.977 14.504.312 30.547 12.933 39.254l138.164 94.718a8.537 8.537 0 013.715 7.047c0 14.141 11.461 25.602 25.598 25.602h124.016a25.413 25.413 0 0019.984-9.633 25.673 25.673 0 004.848-22.035l-12.458-46.078a202.916 202.916 0 01-3.824-61.348c7.032-89.18-52.754-153.601-67.918-164.797-27.894-20.562-48.699-42-57.097-58.82-12.586-25.238-4.102-42.504 4.097-59.195 6.88-14.004 13.996-28.477 3.899-43.657a37.548 37.548 0 00-24.02-17.117zm-127.66 4.89c14.14 0 25.602 11.46 25.602 25.597V78.2l-34.133 31.95V42.87a8.52 8.52 0 012.5-6.031 8.52 8.52 0 016.031-2.5zm-38.45 138.12a16.939 16.939 0 014.513-11.784l22.52-24.465a7.27 7.27 0 00.581-.555l50.11-46.89a8.486 8.486 0 001.32-1.246l41.918-39.254a8.608 8.608 0 0112.004 0l.582-.582c.207.242.43.464.664.675l-.54.692c9.27 10.043 9.012 25.594-.577 35.328l-33.563 32.223-47.258 42.562a16.6 16.6 0 00-4.48 12.117 42.658 42.658 0 00-34.66 27.93l-10.711 30.125c-1.715-20.977-2.262-44.727-2.422-56.875zm64.786-1.589l24.66-22.187a138.035 138.035 0 00.813 22.187zM18.145 308.473L54.94 204.93a25.693 25.693 0 0124.293-16.992h73.227a8.632 8.632 0 014.937 1.59l44.172 31.3a6.51 6.51 0 012.805 5.254 6.591 6.591 0 01-.902 3.414c-.301.496-.692.988-1.051 1.477l-13.86-9.914a42.351 42.351 0 00-24.746-7.954H96.66c-18.066.028-34.156 11.434-40.168 28.473l-30.719 87.297-1.109-.75a16.73 16.73 0 01-6.52-19.652zm178.52-225.664c-8.622 17.527-20.415 41.539-4.048 74.343 13.082 26.223 44.606 51.942 62.235 64.918 11.332 8.34 67.48 67.903 61.03 149.727a220.163 220.163 0 004.266 66.816l12.457 46.082a8.538 8.538 0 01-1.632 7.22 8.54 8.54 0 01-6.66 3.226h-124.06c-4.71 0-8.53-3.825-8.53-8.536a25.608 25.608 0 00-11.094-21.128l-138.156-94.72a17.116 17.116 0 01-6.442-19.78L72.578 247.21a25.605 25.605 0 0124.067-17.066H163.8a25.409 25.409 0 0114.84 4.77l39.398 28.202a6.624 6.624 0 011.793 8.746 25.48 25.48 0 01-16.27 11.801 25.472 25.472 0 01-19.761-3.676l-17.067-11.39a25.356 25.356 0 00-14.199-4.32h-26.281a25.374 25.374 0 00-24.336 17.69c-.504 1.595-1.223 3.575-2.031 5.802-6.145 16.98-20.48 56.714 12.047 69.761a8.537 8.537 0 008.656-1.023 8.528 8.528 0 003.242-8.086 8.54 8.54 0 00-5.547-6.723c-14.312-5.742-11.293-23.398-2.347-48.117.902-2.492 1.707-4.684 2.253-6.46a8.38 8.38 0 018.063-5.778h26.273c1.676 0 3.313.5 4.703 1.433l17.067 11.403a42.568 42.568 0 0032.992 6.125 42.569 42.569 0 0027.176-19.684c6.258-10.578 3.43-24.183-6.528-31.387l-11.664-8.39c.622-.852 1.297-1.703 1.825-2.559 6.336-10.57 3.437-24.234-6.637-31.324l-44.16-31.352a25.796 25.796 0 00-14.84-4.738h-19.297a120.844 120.844 0 011.266-39.715l36.36-34.574c13.144-13.207 16.198-33.418 7.542-49.922 9.047-2.847 18.836 1.13 23.34 9.473 4.23 6.367 1.86 12.699-5.008 26.676zm0 0"></path>
    <path d="M160.387 358.605a8.547 8.547 0 00-5.41 16.215c19.695 6.602 70.828 30.285 70.828 60.168a8.533 8.533 0 0017.066 0c-.027-48.308-79.113-75.281-82.484-76.383zm57.644-31.23a8.529 8.529 0 00-7.87-3.3 8.53 8.53 0 00-6.794 5.167 8.525 8.525 0 001.078 8.465c13.02 17.066 34.68 37.496 63.922 37.496a8.534 8.534 0 100-17.066c-22.254 0-39.629-16.735-50.336-30.762zM223.867 2.86l-8.133 8.535a8.532 8.532 0 004.07 14.398c3.04.7 6.216-.313 8.286-2.64l8.133-8.536a8.532 8.532 0 002.23-8.406 8.534 8.534 0 00-6.3-5.992 8.526 8.526 0 00-8.286 2.64zm40.395 38.304a8.523 8.523 0 00-4.04-5.137 8.53 8.53 0 00-6.488-.777l-11.093 3.125a8.536 8.536 0 00-6.22 9.402 8.537 8.537 0 008.532 7.368c.785 0 1.567-.11 2.32-.325l11.094-3.117a8.53 8.53 0 005.895-10.539zm-23.774 34.707a8.533 8.533 0 00-10.523 5.91 8.531 8.531 0 005.906 10.524l11.094 3.125c.758.21 1.539.32 2.324.316a8.536 8.536 0 008.45-7.375 8.54 8.54 0 00-6.157-9.379zm0 0"></path>
  </symbol>
  <symbol xmlns="http://www.w3.org/2000/svg" viewBox="0 0 42 42" id="click">
    <path d="M0 20h42v2H0z"></path>
  </symbol>
  <symbol xmlns="http://www.w3.org/2000/svg" viewBox="0 0 512 512" id="bar-graph">
    <path d="M504.5 487.085h-29.56V162.343a7.5 7.5 0 00-7.5-7.5h-24.81a7.5 7.5 0 000 15h17.31v317.24h-69.57v-317.24h19.58a7.5 7.5 0 000-15h-27.08a7.5 7.5 0 00-7.5 7.5v44.983h-77.081a7.5 7.5 0 00-7.5 7.5v48.885h-77.078a7.5 7.5 0 00-7.5 7.5v48.885h-77.078a7.5 7.5 0 00-7.5 7.5v39.777H44.56a7.5 7.5 0 00-7.5 7.5v44.91a7.5 7.5 0 0015 0v-37.41h69.57v104.71H52.06v-34.62a7.5 7.5 0 00-15 0v34.622H7.5a7.5 7.5 0 000 15h497a7.5 7.5 0 000-15zM136.633 335.096h69.578v151.989h-69.578zm84.578-7.5v-48.885h69.578v208.374h-69.578zm84.578 159.489V222.326h69.578v264.759zM51.59 334.233c4.693 0 9.19-1.435 12.997-4.142L402.375 90.67c-.227 4.977 1.199 9.859 4.126 13.99 3.477 4.903 8.654 8.159 14.536 9.16 1.255.221 2.545.333 3.833.333a22.422 22.422 0 0022.163-18.719l8.63-50.611a22.347 22.347 0 00-3.825-16.786 22.352 22.352 0 00-14.578-9.167l-50.611-8.63a22.358 22.358 0 00-16.787 3.825 22.352 22.352 0 00-9.167 14.581c-1.919 11.283 4.967 22.077 15.658 25.315l-126.861 89.913a7.5 7.5 0 108.673 12.239l141.43-100.24a7.501 7.501 0 00-3.077-13.512l-14.901-2.539c-4.076-.699-6.828-4.584-6.135-8.66a7.445 7.445 0 013.056-4.859 7.455 7.455 0 015.59-1.275l50.612 8.63a7.447 7.447 0 014.86 3.056 7.441 7.441 0 011.275 5.59l-8.631 50.616a7.464 7.464 0 01-8.647 6.121 7.447 7.447 0 01-4.86-3.056 7.442 7.442 0 01-1.275-5.591l2.54-14.911a7.498 7.498 0 00-11.73-7.378L55.904 317.86a7.4 7.4 0 01-4.314 1.373c-2.469 0-4.707-1.154-6.13-3.156-2.393-3.377-1.591-8.071 1.788-10.466l178.23-126.33a7.5 7.5 0 00-8.674-12.238l-178.23 126.33c-4.904 3.475-8.162 8.652-9.174 14.579s.345 11.893 3.828 16.808a22.57 22.57 0 0018.362 9.473z"></path>
  </symbol>
  <symbol xmlns="http://www.w3.org/2000/svg" viewBox="0 0 512 512" id="wordpress">
    <path d="M41.073 152.466a10.2 10.2 0 00-18.895-.657C7.468 184.791.009 219.844.009 255.99c0 48.964 13.875 96.559 40.124 137.639 25.548 39.983 61.564 72.053 104.158 92.743a10.194 10.194 0 0011.29-1.604 10.2 10.2 0 002.747-11.068L41.073 152.466zM20.408 255.99c0-24.264 3.652-47.994 10.883-70.837l98.5 269.854C61.706 412.039 20.408 337.973 20.408 255.99zm324.968 224.775l-75.473-206.771a10.2 10.2 0 00-9.58-6.702h-.096a10.203 10.203 0 00-9.55 6.88l-73.753 214.293a10.195 10.195 0 006.766 13.104A256.135 256.135 0 00256.001 512c29.053 0 57.656-4.883 85.015-14.514a10.204 10.204 0 006.226-6.212 10.194 10.194 0 00-.922-8.747c-.423-.691-.726-1.255-.944-1.762zm-89.375 10.837a235.616 235.616 0 01-56.238-6.818l60.841-176.773 63.36 173.59c-22.027 6.64-44.838 10.001-67.963 10.001z"></path>
    <path d="M373.292 403.888c4.314 0 8.167-2.717 9.612-6.788l27.138-76.438c13.018-33.396 19.346-60.555 19.346-83.022 0-33.87-10.023-51.413-18.869-66.891a10.448 10.448 0 00-.167-.283c-.982-1.597-1.959-3.175-2.926-4.737-10.569-17.065-19.698-31.803-19.698-47.571 0-16.074 11.879-33.424 31.069-33.424.317 0 .804.041 1.321.085.404.034.805.067 1.209.093 4.329.281 8.341-2.2 10.038-6.179a10.2 10.2 0 00-2.492-11.52C381.573 23.87 320.18 0 256.001 0 169.666 0 89.708 43.127 42.115 115.365a10.199 10.199 0 008.179 15.805c6.281.208 11.719.314 16.16.314 23.686 0 58.376-2.55 65.182-3.068 1.089 1.962 1.193 6.64.137 8.39-2.685.3-14.319 1.553-26.893 2.209a10.196 10.196 0 00-9.137 13.433l80.48 239.565a10.198 10.198 0 009.668 6.951h.011a10.2 10.2 0 009.665-6.973l53.793-161.323a10.2 10.2 0 00-.122-6.8l-29.269-78.243a10.2 10.2 0 00-8.959-6.608c-11.584-.675-22.772-1.988-24.791-2.231-.919-1.946-.707-6.437.377-8.368 7.002.524 42.099 3.064 64.336 3.064 23.69 0 58.382-2.55 65.184-3.068 1.09 1.961 1.196 6.641.139 8.389-2.677.3-14.328 1.554-26.896 2.211a10.2 10.2 0 00-9.123 13.478l83.404 244.49a10.2 10.2 0 009.59 6.906h.062zM303.83 158.48c8.698-.708 14.988-1.437 15.375-1.483 11.726-1.386 19.321-12.743 18.061-27.005-1.206-13.633-10.034-22.696-21.423-22.014l-.198.013c-.395.031-39.714 3.092-64.716 3.092-23.477 0-63.551-3.063-63.953-3.093a5.5 5.5 0 00-.184-.012c-11.588-.695-20.652 9.083-21.489 23.228-.836 14.126 6.861 24.914 18.351 25.817 1.624.197 9.756 1.164 19.509 1.907l25.701 68.706-43.012 128.993-66.564-198.143c8.736-.709 15.053-1.442 15.444-1.488 11.724-1.386 19.316-12.747 18.055-27.012-1.207-13.629-10.032-22.697-21.419-22.007l-.198.013c-.374.031-35.884 2.795-60.879 3.071 44.547-57.103 112.646-90.666 185.71-90.666 51.924 0 101.868 16.978 142.757 48.187-18.452 8.187-31.428 27.326-31.428 49.574 0 21.573 11.053 39.419 22.755 58.312.927 1.497 1.864 3.01 2.806 4.541 8.29 14.509 16.097 28.269 16.097 56.629 0 19.642-6.058 45.128-18.008 75.755-.038.098-.074.196-.109.295l-17.388 48.972L303.83 158.48z"></path>
    <path d="M480.631 133.175a10.205 10.205 0 00-12.133-4.786 10.202 10.202 0 00-6.917 11.059c1.038 7.665 1.566 15.707 1.566 23.901 0 26.824-5.711 53.594-17.971 84.247-.06.15-.116.302-.169.454l-75.07 217.056a10.201 10.201 0 009.643 13.532 10.17 10.17 0 005.132-1.388c38.017-22.163 69.889-53.921 92.171-91.842 22.969-39.088 35.109-83.839 35.109-129.417-.001-42.904-10.845-85.374-31.361-122.816zm-81.473 309.854l65.051-188.086c9.331-23.375 15.137-44.781 17.736-65.726a236.37 236.37 0 019.65 66.774c0 73.498-34.797 142.771-92.437 187.038zm-136.872-73.295c-5.342-1.782-11.119 1.108-12.901 6.451l-1.36 4.079c-1.781 5.343 1.108 11.119 6.451 12.901 1.07.357 2.157.526 3.226.526 4.27 0 8.25-2.703 9.675-6.977l1.36-4.079c1.781-5.343-1.108-11.119-6.451-12.901zm-12.579 37.738c-5.344-1.786-11.119 1.108-12.901 6.45l-16.999 50.996c-1.781 5.343 1.108 11.119 6.451 12.9a10.15 10.15 0 003.226.527c4.27 0 8.25-2.703 9.675-6.977l16.998-50.996c1.782-5.343-1.107-11.119-6.45-12.9z"></path>
  </symbol>
  <symbol xmlns="http://www.w3.org/2000/svg" viewBox="0 0 512 512" id="snap">
    <path d="M460.646 10H43.938C25.224 10 10 25.521 10 44.6v420.122c0 19.078 15.224 34.6 33.89 34.6 3.139.025 315.346 2.492 438.5 2.679h.03a19.282 19.282 0 0013.827-5.813A19.917 19.917 0 00502 481.77l-7.421-437.793C494.249 25.242 479.026 10 460.646 10zM43.938 22h416.708c11.879 0 21.719 9.954 21.935 22.184l6.511 384.244-96.777-99.462a33.563 33.563 0 00-54.35-3.721l-45.03 53.805a21.4 21.4 0 01-18.452 7.764 21.636 21.636 0 01-17.013-10.959l-81.253-140.576a33.583 33.583 0 00-56.1-3.578L22 345.014V44.6C22 32.138 31.841 22 43.938 22zm443.767 465.764a7.377 7.377 0 01-5.282 2.236h-.011c-123.12-.187-435.288-2.654-438.474-2.679-12.1 0-21.938-10.138-21.938-22.6V363.346L129.321 239.4l.271-.337a21.585 21.585 0 0136.236 2.221L247.08 381.86a33.576 33.576 0 0055.057 4.892l45.03-53.805a21.57 21.57 0 0135.25 2.83l.356.591L489.388 445.94l.612 36.028a8.007 8.007 0 01-2.295 5.796z"></path>
    <path d="M284.988 218.5c29.7 0 53.864-24.671 53.864-54.995s-24.164-54.995-53.864-54.995-53.863 24.671-53.863 54.995 24.163 54.995 53.863 54.995zm0-97.99c23.084 0 41.864 19.287 41.864 42.995s-18.78 43-41.864 43-41.863-19.288-41.863-42.995 18.775-42.996 41.863-42.996z"></path>
  </symbol>
  <symbol xmlns="http://www.w3.org/2000/svg" viewBox="0 0 512 512" id="menu">
    <path d="M467 61H165c-24.82 0-45 20.19-45 45 0 24.82 20.18 45 45 45h302c24.81 0 45-20.18 45-45 0-24.81-20.19-45-45-45zm0 150H165c-24.82 0-45 20.19-45 45 0 24.82 20.18 45 45 45h302c24.81 0 45-20.18 45-45 0-24.81-20.19-45-45-45zm0 150H165c-24.82 0-45 20.19-45 45 0 24.82 20.18 45 45 45h302c24.81 0 45-20.18 45-45 0-24.81-20.19-45-45-45zM45 61C20.18 61 0 81.19 0 106c0 24.82 20.18 45 45 45 24.81 0 45-20.18 45-45 0-24.81-20.19-45-45-45zm0 150c-24.82 0-45 20.19-45 45 0 24.82 20.18 45 45 45 24.81 0 45-20.18 45-45 0-24.81-20.19-45-45-45zm0 150c-24.82 0-45 20.19-45 45 0 24.82 20.18 45 45 45 24.81 0 45-20.18 45-45 0-24.81-20.19-45-45-45z"></path>
  </symbol>
  <symbol xmlns="http://www.w3.org/2000/svg" viewBox="0 0 508.044 508.044" id="left-quotes-sign">
    <path d="M.108 352.536c0 66.794 54.144 120.938 120.937 120.938 66.794 0 120.938-54.144 120.938-120.938s-54.144-120.937-120.938-120.937c-13.727 0-26.867 2.393-39.168 6.61C109.093 82.118 230.814-18.543 117.979 64.303-7.138 156.17-.026 348.84.114 352.371c0 .055-.006.104-.006.165zm266.061 0c0 66.794 54.144 120.938 120.938 120.938s120.938-54.144 120.938-120.938S453.9 231.599 387.106 231.599c-13.728 0-26.867 2.393-39.168 6.61C375.154 82.118 496.875-18.543 384.04 64.303 258.923 156.17 266.034 348.84 266.175 352.371c0 .055-.006.104-.006.165z"></path>
  </symbol>
</svg>